Coordinates
version=1
nRows=24
nColumns=22
inDegrees=yes

Units are S.I. units (second, meters, Newtons, ...)
If the header above contains a line with 'inDegrees', this indicates whether rotational values are in degrees (yes) or radians (no).

endheader
time	pelvis_tilt	pelvis_list	pelvis_rotation	pelvis_tx	pelvis_ty	pelvis_tz	hip_flexion_r	hip_adduction_r	hip_rotation_r	knee_angle_r	ankle_angle_r	subtalar_angle_r	hip_flexion_l	hip_adduction_l	hip_rotation_l	knee_angle_l	ankle_angle_l	subtalar_angle_l	lumbar_extension	lumbar_bending	lumbar_rotation
      3.63000000	      2.54097456	     -1.37242484	     78.68074232	      0.43803300	      0.92308887	     -0.45176087	     27.03171296	      2.96538523	      2.02168332	    -22.93497579	      1.53719742	      2.92513977	     -4.17473295	      2.85589178	     15.71222778	    -37.38885793	      8.77427175	      3.97932946	     -4.59869294	      3.57545501	     -7.50041041
      3.64000000	      2.67052026	     -1.26228958	     78.84018333	      0.44226552	      0.92471392	     -0.45932099	     26.54123117	      3.17065043	      1.73869185	    -23.26660168	      1.74618235	      2.84653733	     -3.38982464	      2.53756739	     14.63314542	    -39.33866306	      7.05309182	      5.89242859	     -4.73825652	      3.75111739	     -7.31239012
      3.65000000	      2.79093823	     -1.14701755	     79.01189691	      0.44645057	      0.92629097	     -0.46665583	     26.00103268	      3.37516432	      1.44454385	    -23.49305752	      1.95582430	      2.64909044	     -2.48479542	      2.18405049	     13.49241826	    -41.39660753	      5.39701497	      7.66222606	     -4.89014146	      3.89410437	     -7.09827814
      3.66000000	      2.90590151	     -1.03662733	     79.19091446	      0.45059805	      0.92776811	     -0.47375548	     25.43242507	      3.58740235	      1.14048871	    -23.63133737	      2.15717103	      2.34170261	     -1.46734451	      1.78415494	     12.30093411	    -43.53544414	      3.86749092	      9.19080256	     -5.04219667	      4.00914406	     -6.86879886
      3.67000000	      3.01824096	     -0.93543530	     79.37877753	      0.45470282	      0.92913171	     -0.48062646	     24.84476968	      3.81067524	      0.83759835	    -23.69110561	      2.35057571	      1.94920835	     -0.35604294	      1.33085441	     11.07597623	    -45.72040076	      2.50564285	     10.38444117	     -5.18690540	      4.10231744	     -6.61465690
      3.68000000	      3.11461535	     -0.84009695	     79.57312793	      0.45876673	      0.93037655	     -0.48728645	     24.24164510	      4.03114444	      0.54983165	    -23.68331208	      2.57393574	      1.40900311	      0.82206918	      0.84239819	      9.84701808	    -47.90953683	      1.35908001	     11.30117997	     -5.32075107	      4.15917355	     -6.35949725
      3.69000000	      3.23395199	     -0.77539857	     79.74779371	      0.46284037	      0.93147559	     -0.49373775	     23.66528655	      4.29628216	      0.26721398	    -23.64321339	      2.75660582	      0.90773353	      2.06658508	      0.25909545	      8.56849560	    -50.07701152	      0.46294596	     11.69366939	     -5.42411476	      4.22905023	     -6.05050245
      3.70000000	      3.36761903	     -0.71867471	     79.91536138	      0.46692219	      0.93248394	     -0.50000894	     23.09607778	      4.59223270	      0.01680574	    -23.58498908	      2.93150389	      0.38288829	      3.32647112	     -0.39483137	      7.30339550	    -52.17333538	     -0.16183604	     11.68669009	     -5.51718744	      4.29582043	     -5.72197387
      3.71000000	      3.50895732	     -0.66306188	     80.08030601	      0.47098728	      0.93343451	     -0.50612630	     22.52922799	      4.90901647	     -0.17730349	    -23.51681643	      3.12839667	     -0.18704465	      4.57477086	     -1.09238624	      6.09462265	    -54.16065367	     -0.55456622	     11.22715747	     -5.60466093	      4.35670465	     -5.38891600
      3.72000000	      3.66878239	     -0.60194878	     80.21811563	      0.47504516	      0.93437286	     -0.51213295	     21.96376157	      5.24860150	     -0.36293021	    -23.45022874	      3.29346032	     -0.60476147	      5.77325327	     -1.84058139	      4.92189722	    -55.99501708	     -0.65916919	     10.43399068	     -5.69281481	      4.42647265	     -5.01851547
      3.73000000	      3.82346371	     -0.53161968	     80.34911951	      0.47904039	      0.93531737	     -0.51806337	     21.38242784	      5.58617241	     -0.48439741	    -23.36602710	      3.53408121	     -0.96621838	      6.91003698	     -2.58186251	      3.83887600	    -57.64840636	     -0.58421659	      9.28667971	     -5.77684140	      4.48388186	     -4.66596583
      3.74000000	      3.97262344	     -0.44474011	     80.47087571	      0.48292957	      0.93627801	     -0.52389281	     20.79941385	      5.91182781	     -0.56405255	    -23.29847267	      3.79536925	     -1.20167301	      7.97280061	     -3.29083077	      2.86246898	    -59.11002645	     -0.30649638	      7.93219761	     -5.87530370	      4.53435322	     -4.32017504
      3.75000000	      4.11250868	     -0.34830534	     80.58382123	      0.48670159	      0.93727172	     -0.52964801	     20.21115421	      6.21761756	     -0.62938703	    -23.22569792	      4.05365030	     -1.29930146	      8.95797919	     -3.95279563	      1.98758940	    -60.35551047	      0.13162100	      6.52435907	     -5.97422482	      4.57588294	     -3.97806313
      3.76000000	      4.23486655	     -0.23887645	     80.69455461	      0.49031127	      0.93829666	     -0.53533098	     19.61211037	      6.48850479	     -0.69074642	    -23.14111298	      4.31951031	     -1.28811277	      9.86312746	     -4.54180895	      1.21931937	    -61.37971897	      0.67110653	      5.14490522	     -6.07999917	      4.60511186	     -3.65552172
      3.77000000	      4.33985293	     -0.11490818	     80.80942597	      0.49375285	      0.93935945	     -0.54094100	     18.99712554	      6.72585086	     -0.75469631	    -23.04007252	      4.58769216	     -1.20060340	     10.68322515	     -5.04800032	      0.55631916	    -62.17333433	      1.27947574	      3.88264097	     -6.19447921	      4.62194709	     -3.35209067
      3.78000000	      4.42086456	      0.02345136	     80.92942024	      0.49700719	      0.94044804	     -0.54646674	     18.36728079	      6.92065863	     -0.83517067	    -22.91853778	      4.85729717	     -1.07571794	     11.42059700	     -5.46234533	     -0.01466889	    -62.73666973	      1.93070582	      2.81192328	     -6.31963018	      4.61991693	     -3.06391047
      3.79000000	      4.48409662	      0.15935964	     81.05440587	      0.50008646	      0.94153442	     -0.55188791	     17.72983404	      7.08989081	     -0.90444115	    -22.75640861	      5.08088328	     -0.96821513	     12.09460530	     -5.79499815	     -0.50168259	    -63.07632336	      2.65328824	      2.04525850	     -6.43974326	      4.60932826	     -2.79597807
      3.80000000	      4.49499173	      0.31289339	     81.18640243	      0.50295180	      0.94261177	     -0.55718361	     17.09884074	      7.18385687	     -1.01240625	    -22.60876599	      5.36416861	     -0.86008667	     12.68810220	     -6.00601291	     -0.93093887	    -63.18609547	      3.33573801	      1.37089386	     -6.57829647	      4.55046948	     -2.54874029
      3.81000000	      4.45964187	      0.41978692	     81.33355667	      0.50560914	      0.94354313	     -0.56232607	     16.55000213	      7.22129723	     -1.15643452	    -22.48680974	      5.69951653	     -0.83892829	     13.28968039	     -6.10434406	     -1.27261525	    -63.11104807	      4.06364403	      1.05231426	     -6.66067472	      4.45848259	     -2.30987004
      3.82000000	      4.44737275	      0.58212419	     81.44424900	      0.50819916	      0.94457468	     -0.56738715	     15.90214846	      7.28284209	     -1.25516039	    -22.28626383	      5.94517660	     -0.75989814	     13.73364358	     -6.20412962	     -1.64013119	    -62.80078031	      4.71880220	      0.63027266	     -6.81742900	      4.38815617	     -2.03947741
      3.83000000	      4.39483190	      0.64308408	     81.58450210	      0.51059516	      0.94534053	     -0.57224914	     15.41310797	      7.30099326	     -1.40010433	    -22.13891227	      6.23968569	     -0.76623273	     14.26495788	     -6.21972670	     -1.92169914	    -62.34940942	      5.43017373	      0.44761711	     -6.86189370	      4.30037681	     -1.80931732
      3.84000000	      4.36413546	      0.76487730	     81.68327521	      0.51296410	      0.94618541	     -0.57705173	     14.83436165	      7.34322712	     -1.50263023	    -21.94744611	      6.49994985	     -0.79169002	     14.63341830	     -6.24237060	     -2.22959125	    -61.69087723	      6.13324155	      0.35308096	     -6.98273034	      4.22628427	     -1.53215649
      3.85000000	      4.33410682	      0.83069526	     81.80038964	      0.51521696	      0.94686276	     -0.58169622	     14.33438336	      7.38815529	     -1.62197460	    -21.76751487	      6.75668303	     -0.85858267	     15.02690942	     -6.24155960	     -2.47704741	    -60.90592049	      6.84167451	      0.31579742	     -7.04867847	      4.16567498	     -1.27379124
      3.86000000	      4.31103876	      0.82186529	     81.93696927	      0.51735470	      0.94734523	     -0.58620319	     13.94055756	      7.44394071	     -1.76208238	    -21.61618780	      7.00451675	     -0.90970872	     15.46503933	     -6.23428416	     -2.67467190	    -60.00725670	      7.53263682	      0.22009243	     -7.03422079	      4.13097332	     -1.05532108
